<?xml version="1.0" encoding="utf-8"?>
<!-- Generator: Adobe Illustrator 22.0.0, SVG Export Plug-In . SVG Version: 6.00 Build 0)  -->
<svg version="1.1" id="Layer_1" xmlns="http://www.w3.org/2000/svg" xmlns:xlink="http://www.w3.org/1999/xlink" x="0px" y="0px"
	 viewBox="0 0 26.8 16.7" style="enable-background:new 0 0 26.8 16.7;" xml:space="preserve">
<style type="text/css">
	.st0{clip-path:url(#SVGID_2_);fill:#FFFFFF;}
</style>
<g>
	<defs>
		<rect id="SVGID_1_" width="26.8" height="16.7"/>
	</defs>
	<clipPath id="SVGID_2_">
		<use xlink:href="#SVGID_1_"  style="overflow:visible;"/>
	</clipPath>
	<path class="st0" d="M13.9,15.8c0.4,0.6,1.1,0.9,1.8,0.9h2.7L7.5,0H3.5L13.9,15.8z M8.4,0h2.8c0.8,0,1.5,0.4,1.9,1l10.2,15.7h-4
		L8.4,0z"/>
	<path class="st0" d="M19.9,0c-0.9,0-1.9,0.6-2.1,1.4l-1.1,5.2l2.9,4.5L22,0H19.9z M22.9,0h3.9l-3.5,16.7l-3-4.6L22.9,0z M3.9,16.7
		L6.5,4.5L3.5,0L0,16.7H3.9z M7,16.7H4.8L7.2,5.6l3,4.5L9,15.2C8.8,16.1,7.9,16.7,7,16.7"/>
</g>
</svg>
